<svg xmlns="http://www.w3.org/2000/svg" width="48" height="48" id="webpage">
  <g transform="translate(0 -1004.362)">
    <circle cx="24" cy="1028.362" r="24" fill="#1d67b1"></circle>
    <path fill="#154082" d="M25.443 47.95a24 24 0 0 0 .254-.01 24 24 0 0 0 2.383-.29 24 24 0 0 0 2.34-.525 24 24 0 0 0 2.277-.756 24 24 0 0 0 2.19-.98 24 24 0 0 0 2.08-1.194 24 24 0 0 0 1.951-1.394 24 24 0 0 0 1.803-1.584 24 24 0 0 0 1.634-1.756 24 24 0 0 0 1.454-1.91 24 24 0 0 0 1.254-2.045 24 24 0 0 0 1.042-2.16 24 24 0 0 0 .823-2.254 24 24 0 0 0 .593-2.324 24 24 0 0 0 .36-2.372A24 24 0 0 0 48 24a24 24 0 0 0-.018-.512L36 11.506a.5.5 0 0 0-.496-.496l-.004-.004h-23l.004.004H12.5a.5.5 0 0 0-.1-.01.5.5 0 0 0-.056.01.5.5 0 0 0-.344.498.5.5 0 0 0 0 .002v23a.5.5 0 0 0 .5.5h.004l12.94 12.94z" color="#000" font-family="Sans" font-weight="400" style="line-height:normal;-inkscape-font-specification:Sans;text-indent:0;text-align:start;text-decoration-line:none;text-transform:none;block-progression:tb;marker:none" transform="translate(0 1004.362)"></path>
    <path fill="#fff" d="M12.344 1015.369a.5.5 0 0 0-.344.5v23a.5.5 0 0 0 .5.5H16c.001.254.004.53.032.78v.032c.028.25.071.474.125.719.004.02-.004.041 0 .061.053.236.143.49.218.72.844 2.79 3.118 4.937 6 5.53h.063c.241.048.501.1.75.125.27.031.538.031.812.031.55 0 1.099-.036 1.625-.156 2.882-.593 5.156-2.74 6-5.531.075-.229.166-.483.22-.719.003-.02-.005-.042 0-.062.052-.244.095-.468.124-.718v-.032c.028-.25.03-.526.031-.78h3.5a.5.5 0 0 0 .5-.5v-23a.5.5 0 0 0-.5-.5h-23a.5.5 0 0 0-.156 0zm.656 1h22v3H13v-3zm1.5 1a.5.5 0 1 0 0 1 .5.5 0 0 0 0-1zm2 0a.5.5 0 1 0 0 1 .5.5 0 0 0 0-1zm2 0a.5.5 0 1 0 0 1 .5.5 0 0 0 0-1zm-5.5 3h22v18h-3.062a7.773 7.773 0 0 0-.094-.594c-.002-.01.002-.022 0-.031a8.05 8.05 0 0 0-5.531-6.063 7.506 7.506 0 0 0-.688-.187h-.062a7.538 7.538 0 0 0-.75-.125c-.104-.011-.208-.025-.313-.031v-.969h.5a.5.5 0 0 0 .25-.031.5.5 0 0 0 .188-.687.5.5 0 0 0-.031-.062.5.5 0 0 0-.219-.188.5.5 0 0 0-.188-.031h-2a.5.5 0 0 0-.156 0 .506.506 0 1 0 .156 1h.5v.969l-.28.03c-3.508.346-6.368 2.972-7.063 6.376-.002.01.002.022 0 .03-.04.2-.07.39-.094.595h-3.062v-18zm6.938 10.25-1.031.593.437.782 1.031-.594-.437-.781zm8.125 0-.438.78 1.032.595.437-.782-1.031-.593zM24 1032.305c.227 0 .464.037.688.062h.031c.213.026.416.046.625.094h.063c2.61.62 4.845 2.905 5.437 5.531.04.21.103.41.125.625.03.244.031.472.031.719 0 .227-.006.463-.03.688-.002.01 0 .02 0 .03a6.664 6.664 0 0 1-.126.657c-.004.019.004.043 0 .062-.721 3.06-3.695 5.594-6.844 5.594-.231 0-.462-.01-.687-.032h-.031a6.758 6.758 0 0 1-.625-.094c-2.615-.594-4.883-2.848-5.5-5.468-.004-.02.004-.043 0-.062-.048-.211-.1-.442-.125-.656v-.032a7.15 7.15 0 0 1 0-1.344c.002-.02-.002-.042 0-.061.021-.216.084-.416.125-.625.592-2.627 2.827-4.912 5.437-5.531a6.933 6.933 0 0 1 1.406-.157zm-.5.406v1.188h1v-1.188h-1zm-2.375.625-.843.5.593 1.063.875-.5-.625-1.063zm5.75 0-.593 1.063.843.5.625-1.063-.875-.5zM24 1034.9c-2.425 0-4.406 2.006-4.406 4.437a4.413 4.413 0 0 0 4.406 4.407 4.413 4.413 0 0 0 4.407-4.407c0-2.43-1.981-4.437-4.407-4.437zm-5.468.687-.5.875 1.03.594.5-.875-1.03-.594zm10.937 0-1.031.594.5.875 1.031-.594-.5-.875zM24 1035.9c1.883 0 3.407 1.545 3.407 3.437a3.398 3.398 0 0 1-3.407 3.407 3.398 3.398 0 0 1-3.406-3.407c0-1.892 1.524-3.437 3.406-3.437zm0 2.031c-.768 0-1.406.638-1.406 1.406 0 .768.638 1.407 1.406 1.407.769 0 1.407-.639 1.407-1.407s-.638-1.406-1.407-1.406zm-6.593.906v1h1.187v-1h-1.187zm12 0v1h1.187v-1h-1.187zm-5.407.094c.226 0 .407.177.407.407 0 .23-.18.406-.407.406a.402.402 0 0 1-.406-.406c0-.23.18-.407.406-.407zm-4.937 2.688-1.031.594.5.875 1.03-.625-.5-.844zm9.875 0-.5.844 1.031.625.5-.875-1.031-.594zm-8.063 2.156-.593 1.031.843.5.625-1.031-.875-.5zm6.25 0-.843.5.593 1.031.875-.5-.625-1.031zm-3.625.969v1.219h1v-1.22h-1z" color="#000" font-family="Sans" font-weight="400" overflow="visible" style="line-height:normal;-inkscape-font-specification:Sans;text-indent:0;text-align:start;text-decoration-line:none;text-transform:none;block-progression:tb;marker:none"></path>
  </g>
</svg>
